<?xml version="1.0" encoding="UTF-8"?>
<svg width="505px" height="132px" viewBox="0 0 505 132" version="1.1" xmlns="http://www.w3.org/2000/svg" xmlns:xlink="http://www.w3.org/1999/xlink">
    <!-- Generator: Sketch 59.1 (86144) - https://sketch.com -->
    <title>Acc_Logo_White_Purple_RGB</title>
    <desc>Created with Sketch.</desc>
    <g id="Welcome" stroke="none" stroke-width="1" fill="none" fill-rule="evenodd">
        <g id="0" transform="translate(-548.000000, -394.000000)">
            <g id="Acc_Logo_White_Purple_RGB" transform="translate(548.000000, 394.000000)">
                <polygon id="Path" fill="#A100FF" points="293 37.4117647 322.192547 26.5 293 15.2764706 293 0 343 20.2647059 343 32.7352941 293 53"></polygon>
                <path d="M19.1615667,132 C8.65361077,132 0,126.742972 0,114.991968 L0,114.373494 C0,100.148594 12.3623011,95.2008032 27.50612,95.2008032 L34.6144431,95.2008032 L34.6144431,92.4176707 C34.6144431,86.5421687 32.1419829,83.1405622 25.9608323,83.1405622 C20.3977968,83.1405622 17.6162791,86.2329317 17.3072215,90.562249 L1.85434517,90.562249 C3.09057528,77.5742972 13.2894737,71.3895582 26.8880049,71.3895582 C40.7955936,71.3895582 50.994492,77.2650602 50.994492,91.7991968 L50.994492,130.763052 L35.2325581,130.763052 L35.2325581,123.959839 C32.1419829,128.289157 26.8880049,132 19.1615667,132 Z M34.6144431,111.590361 L34.6144431,106.024096 L28.124235,106.024096 C20.0887393,106.024096 16.0709914,108.188755 16.0709914,113.445783 L16.0709914,114.064257 C16.0709914,118.084337 18.5434517,120.86747 24.1064871,120.86747 C29.6695226,120.558233 34.6144431,117.465863 34.6144431,111.590361 Z M87.7723378,132 C71.7013464,132 59.9571603,122.104418 59.9571603,102.313253 L59.9571603,101.385542 C59.9571603,81.5943775 72.3194614,71.0803213 87.7723378,71.0803213 C101.061812,71.0803213 111.878825,77.8835341 113.115055,93.0361446 L97.6621787,93.0361446 C96.7350061,87.4698795 93.6444308,83.7590361 88.0813953,83.7590361 C81.2821297,83.7590361 76.3372093,89.3253012 76.3372093,100.767068 L76.3372093,102.62249 C76.3372093,114.373494 80.6640147,119.630522 88.0813953,119.630522 C93.6444308,119.630522 97.6621787,115.610442 98.5893513,109.116466 L113.424113,109.116466 C112.49694,122.722892 103.534272,132 87.7723378,132 Z M148.347613,132 C132.276622,132 120.532436,122.104418 120.532436,102.313253 L120.532436,101.385542 C120.532436,81.5943775 132.894737,71.0803213 148.347613,71.0803213 C161.637087,71.0803213 172.4541,77.8835341 173.69033,93.0361446 L158.237454,93.0361446 C157.310282,87.4698795 154.219706,83.7590361 148.656671,83.7590361 C141.857405,83.7590361 136.912485,89.3253012 136.912485,100.767068 L136.912485,102.62249 C136.912485,114.373494 141.23929,119.630522 148.656671,119.630522 C154.219706,119.630522 158.237454,115.610442 159.164627,109.116466 L173.999388,109.116466 C173.072215,122.722892 164.109547,132 148.347613,132 Z M209.231946,132 C192.54284,132 181.107711,122.104418 181.107711,102.62249 L181.107711,101.385542 C181.107711,81.9036145 193.160955,71.0803213 208.922889,71.0803213 C223.448592,71.0803213 235.501836,79.1204819 235.501836,98.6024096 L235.501836,105.714859 L197.48776,105.714859 C198.105875,116.228916 202.741738,120.248996 209.541004,120.248996 C215.722154,120.248996 219.121787,116.84739 220.358017,112.827309 L235.501836,112.827309 C233.647491,123.650602 224.375765,132 209.231946,132 Z M197.796818,94.8915663 L219.430845,94.8915663 C219.121787,86.2329317 215.104039,82.5220884 208.613831,82.5220884 C203.668911,82.8313253 199.033048,85.6144578 197.796818,94.8915663 Z M245.391677,72.626506 L261.771726,72.626506 L261.771726,81.2851406 C264.553244,75.7188755 270.425337,71.3895582 279.388005,71.3895582 C289.895961,71.3895582 297.004284,77.8835341 297.004284,91.7991968 L297.004284,130.763052 L280.624235,130.763052 L280.624235,94.2730924 C280.624235,87.4698795 277.842717,84.37751 271.970624,84.37751 C266.407589,84.37751 261.771726,87.7791165 261.771726,95.2008032 L261.771726,130.763052 L245.391677,130.763052 L245.391677,72.626506 L245.391677,72.626506 Z M326.982864,55 L326.982864,72.626506 L338.108935,72.626506 L338.108935,84.686747 L326.982864,84.686747 L326.982864,112.208835 C326.982864,116.538153 328.837209,118.702811 332.854957,118.702811 C335.327417,118.702811 336.872705,118.393574 338.417993,117.7751 L338.417993,130.453815 C336.563647,131.072289 333.164015,131.690763 329.146267,131.690763 C316.474908,131.690763 310.602815,125.815261 310.602815,114.064257 L310.602815,84.686747 L303.80355,84.686747 L303.80355,72.626506 L310.602815,72.626506 L310.602815,61.8032129 L326.982864,55 Z M399.302326,130.763052 L383.231334,130.763052 L383.231334,122.104418 C380.449816,127.670683 374.886781,132 366.23317,132 C355.725214,132 347.998776,125.506024 347.998776,111.899598 L347.998776,72.626506 L364.378825,72.626506 L364.378825,109.73494 C364.378825,116.538153 367.160343,119.630522 372.723378,119.630522 C378.286414,119.630522 382.922277,115.919679 382.922277,108.807229 L382.922277,72.626506 L399.302326,72.626506 L399.302326,130.763052 Z M411.355569,72.626506 L427.735618,72.626506 L427.735618,83.4497992 C431.135251,75.7188755 436.698286,72.0080321 445.351897,72.0080321 L445.351897,88.0883534 C434.225826,88.0883534 427.735618,91.4899598 427.735618,101.076305 L427.735618,131.072289 L411.355569,131.072289 L411.355569,72.626506 Z M478.421053,132 C461.731946,132 450.296818,122.104418 450.296818,102.62249 L450.296818,101.385542 C450.296818,81.9036145 462.350061,71.0803213 478.111995,71.0803213 C492.637699,71.0803213 504.690942,79.1204819 504.690942,98.6024096 L504.690942,105.714859 L466.985924,105.714859 C467.604039,116.228916 472.239902,120.248996 479.039168,120.248996 C485.220318,120.248996 488.619951,116.84739 489.856181,112.827309 L505,112.827309 C502.52754,123.650602 493.564871,132 478.421053,132 Z M466.676867,94.8915663 L488.619951,94.8915663 C488.310894,86.2329317 484.293146,82.5220884 477.802938,82.5220884 C472.858017,82.8313253 468.222154,85.6144578 466.676867,94.8915663 Z" id="Shape" fill="#000" fill-rule="nonzero"></path>
            </g>
        </g>
    </g>
</svg>
